<?xml version="1.0" encoding="UTF-8"?>
<svg width="153px" height="41px" viewBox="0 0 153 41" version="1.1" xmlns="http://www.w3.org/2000/svg" xmlns:xlink="http://www.w3.org/1999/xlink">
    <!-- Generator: Sketch 49 (51002) - http://www.bohemiancoding.com/sketch -->
    <title>inapptics-white</title>
    <desc>Created with Sketch.</desc>
    <defs>
        <polygon id="path-1" points="0 41 0 0 155 0 155 41"></polygon>
    </defs>
    <g id="Page-1" stroke="none" stroke-width="1" fill="none" fill-rule="evenodd">
        <g id="inapptics-white">
            <mask id="mask-2" fill="white">
                <use xlink:href="#path-1"></use>
            </mask>
            <g id="background"></g>
            <g id="letters" mask="url(#mask-2)" fill="#FFFFFF">
                <g transform="translate(49.541667, 10.250000)">
                    <path d="M0.123155303,17.1077617 L3.75718409,17.1077617 L3.75718409,4.60454428 L0.123155303,4.60454428 L0.123155303,17.1077617 Z M0.0274731061,3.22823833 L3.85286629,3.22823833 L3.85286629,0.0790950081 L0.0274731061,0.0790950081 L0.0274731061,3.22823833 Z" id="Fill-1"></path>
                    <path d="M6.33965606,4.60454428 L9.9727375,4.60454428 L9.9727375,6.37738164 C10.8101936,5.3273591 11.8863814,4.37161675 13.7270795,4.37161675 C16.4762848,4.37161675 18.0782511,6.14445411 18.0782511,9.01352979 L18.0782511,17.1077617 L14.4442223,17.1077617 L14.4442223,10.1338003 C14.4442223,8.45339452 13.63045,7.59008374 12.2444792,7.59008374 C10.857561,7.59008374 9.9727375,8.45339452 9.9727375,10.1338003 L9.9727375,17.1077617 L6.33965606,17.1077617 L6.33965606,4.60454428" id="Fill-2"></path>
                    <path d="M29.696533,10.879723 L29.696533,10.8325829 C29.696533,8.75749436 28.2868784,7.38026409 26.5892299,7.38026409 C24.8915814,7.38026409 23.4572958,8.73346216 23.4572958,10.8325829 L23.4572958,10.879723 C23.4572958,12.9557359 24.8915814,14.3320419 26.5892299,14.3320419 C28.2868784,14.3320419 29.696533,12.9557359 29.696533,10.879723 Z M19.823267,10.879723 L19.823267,10.8325829 C19.823267,6.65744928 22.6198398,4.37161675 25.6560917,4.37161675 C27.5934193,4.37161675 28.7889731,5.23400322 29.6491655,6.23780998 L29.6491655,4.60454428 L33.2831943,4.60454428 L33.2831943,17.1077617 L29.6491655,17.1077617 L29.6491655,15.3118164 C28.7652894,16.4792271 27.5451045,17.3416135 25.6560917,17.3416135 C22.6681545,17.3416135 19.823267,15.055781 19.823267,10.879723 Z" id="Fill-3"></path>
                    <path d="M45.5229367,10.879723 L45.5229367,10.8325829 C45.5229367,8.75749436 44.0877038,7.38026409 42.3900553,7.38026409 C40.6924068,7.38026409 39.2827523,8.75749436 39.2827523,10.8325829 L39.2827523,10.879723 C39.2827523,12.9557359 40.6924068,14.3320419 42.3900553,14.3320419 C44.0877038,14.3320419 45.5229367,12.9797681 45.5229367,10.879723 Z M35.6960909,4.60454428 L39.3301197,4.60454428 L39.3301197,6.40048953 C40.2149432,5.23400322 41.4341807,4.37161675 43.3231936,4.37161675 C46.312078,4.37161675 49.1569655,6.65744928 49.1569655,10.8325829 L49.1569655,10.879723 C49.1569655,15.055781 46.3603928,17.3416135 43.3231936,17.3416135 C41.3877606,17.3416135 40.1912595,16.4792271 39.3301197,15.4754203 L39.3301197,19.7965958 L35.6960909,19.7965958 L35.6960909,4.60454428 Z" id="Fill-4"></path>
                    <path d="M60.8235621,10.879723 L60.8235621,10.8325829 C60.8235621,8.75749436 59.3883292,7.38026409 57.6906807,7.38026409 C55.9939795,7.38026409 54.5833777,8.75749436 54.5833777,10.8325829 L54.5833777,10.879723 C54.5833777,12.9557359 55.9939795,14.3320419 57.6906807,14.3320419 C59.3883292,14.3320419 60.8235621,12.9797681 60.8235621,10.879723 Z M50.9967163,4.60454428 L54.6307451,4.60454428 L54.6307451,6.40048953 C55.5155686,5.23400322 56.7348061,4.37161675 58.6238189,4.37161675 C61.6127034,4.37161675 64.4575909,6.65744928 64.4575909,10.8325829 L64.4575909,10.879723 C64.4575909,15.055781 61.6600708,17.3416135 58.6238189,17.3416135 C56.6874386,17.3416135 55.4918848,16.4792271 54.6307451,15.4754203 L54.6307451,19.7965958 L50.9967163,19.7965958 L50.9967163,4.60454428 Z" id="Fill-5"></path>
                    <path d="M66.3977606,13.562087 L66.3977606,2.28728502 L70.030842,2.28728502 L70.030842,4.60454428 L73.0443576,4.60454428 L73.0443576,7.63722383 L70.030842,7.63722383 L70.030842,12.9797681 C70.030842,13.7959388 70.3898871,14.1924702 71.2027121,14.1924702 C71.8724875,14.1924702 72.4702644,14.0288663 72.9960428,13.749723 L72.9960428,16.5956908 C72.2315326,17.038438 71.3467091,17.3185056 70.1274716,17.3185056 C67.9030973,17.3185056 66.3977606,16.4551948 66.3977606,13.562087" id="Fill-6"></path>
                    <path d="M75.051789,17.1077617 L78.6858178,17.1077617 L78.6858178,4.60454428 L75.051789,4.60454428 L75.051789,17.1077617 Z M74.9551595,3.22823833 L78.7815,3.22823833 L78.7815,0.0790950081 L74.9551595,0.0790950081 L74.9551595,3.22823833 Z" id="Fill-7"></path>
                    <path d="M80.6458818,10.9268631 L80.6458818,10.879723 C80.6458818,7.31094042 83.4424545,4.37161675 87.3635299,4.37161675 C89.7783212,4.37161675 91.2846053,5.16467955 92.4801591,6.47166184 L90.2576795,8.80371014 C89.4429598,7.96443156 88.6310822,7.42740419 87.3398462,7.42740419 C85.5228318,7.42740419 84.2315958,8.9904219 84.2315958,10.8325829 L84.2315958,10.879723 C84.2315958,12.792132 85.4991481,14.3320419 87.4838432,14.3320419 C88.7021333,14.3320419 89.5395894,13.819971 90.4244129,13.002876 L92.5521576,15.1019968 C91.308289,16.432087 89.8740034,17.3878293 87.3161625,17.3878293 C83.4670856,17.3878293 80.6458818,14.4956457 80.6458818,10.9268631" id="Fill-8"></path>
                    <path d="M93.0760413,15.4523124 L94.6306402,13.1193398 C96.0175583,14.1000386 97.476475,14.6121095 98.6720288,14.6121095 C99.7226383,14.6121095 100.201997,14.2396103 100.201997,13.6785507 L100.201997,13.6323349 C100.201997,12.8633043 98.958128,12.6063446 97.5475261,12.185781 C95.7551428,11.6737101 93.722133,10.8566151 93.722133,8.43028663 L93.722133,8.38407085 C93.722133,5.84127858 95.8271413,4.41783253 98.4086659,4.41783253 C100.034316,4.41783253 101.803016,4.9548599 103.189934,5.86438647 L101.803016,8.31382287 C100.536411,7.59008374 99.2698057,7.14733655 98.3366674,7.14733655 C97.4527913,7.14733655 96.9990114,7.52076006 96.9990114,8.01064734 L96.9990114,8.05686312 C96.9990114,8.75749436 98.2173015,9.08377778 99.6042197,9.55055717 C101.39755,10.1338003 103.477928,10.9730789 103.477928,13.2589114 L103.477928,13.3060515 C103.477928,16.0817713 101.349236,17.3416135 98.5763466,17.3416135 C96.7820686,17.3416135 94.7736898,16.7583704 93.0760413,15.4523124" id="Fill-9"></path>
                </g>
            </g>
            <path d="M34.2971018,23.4821487 L34.2971018,30.959047 C34.2971018,32.7892845 32.8218136,34.2971018 30.9906193,34.2971018 L10.0725253,34.2971018 C8.24228777,34.2971018 6.78996126,32.7892845 6.78996126,30.959047 L6.78996126,28.8264806 L12.8671536,23.1645121 L22.0212116,29.6837168 L41,13.0958137 L41,10.040953 C41,4.49570635 36.5205582,0 30.9753115,0 L10.0725253,0 C4.52727867,0 0,4.49570635 0,10.040953 L0,21.3639334 L6.78996126,15.072432 L6.78996126,10.040953 C6.78996126,8.21071545 8.24228777,6.70289821 10.0725253,6.70289821 L30.9896626,6.70289821 L30.9829654,6.71150884 C32.8151164,6.71150884 34.2971018,8.21071545 34.2971018,10.040953 L34.2971018,10.0438232 L21.5983339,21.1314463 L12.2988519,14.5079573 L0,25.9447893 L0,30.959047 C0,36.5042936 4.52727867,41 10.0725253,41 L30.9906193,41 C36.535866,41 41,36.5042936 41,30.959047 L41,17.5752555 L34.2971018,23.4821487" id="logo" fill="#FFFFFF" mask="url(#mask-2)"></path>
        </g>
    </g>
</svg>